<svg width="52" height="49" viewBox="0 0 52 49" fill="none" xmlns="http://www.w3.org/2000/svg">
<path fill-rule="evenodd" clip-rule="evenodd" d="M4.64546 28.2217C4.64576 27.9998 4.59887 27.7796 4.5069 27.571L6.94212 25.611H12.8634V27.2089C12.8634 27.2288 12.8634 27.2478 12.8643 27.2672L8.23975 28.4919C8.00798 28.5528 7.81302 28.6838 7.69431 28.8584L4.5046 33.5235C4.44075 33.5192 4.37618 33.5168 4.31149 33.5168C3.78954 33.5168 3.28281 33.6613 2.87302 33.927C2.46324 34.1927 2.1743 34.564 2.05281 34.9812C1.93131 35.3983 1.98435 35.8369 2.20336 36.2263C2.42237 36.6156 2.79458 36.933 3.25997 37.1272C3.72535 37.3214 4.25678 37.3811 4.76852 37.2967C5.28026 37.2123 5.74249 36.9887 6.08065 36.662C6.4188 36.3352 6.61317 35.9244 6.63241 35.4958C6.65164 35.0671 6.49462 34.6457 6.18666 34.2993L9.19086 29.9019L13.587 28.7377C13.8456 28.9722 14.1611 29.1595 14.5131 29.2878C14.8651 29.4161 15.2458 29.4825 15.6309 29.4828H21.802V22.7727C21.802 22.3103 21.9178 21.8528 22.1422 21.4288C22.3666 21.0048 22.6948 20.6233 23.1064 20.308C22.7741 19.8913 22.5852 19.4086 22.5597 18.9109C22.5342 18.4132 22.6729 17.919 22.9613 17.4809C23.2497 17.0427 23.677 16.6769 24.1979 16.422C24.7187 16.1672 25.3138 16.0329 25.9199 16.0334C26.5261 16.0339 27.1208 16.1692 27.641 16.4248C28.1613 16.6805 28.5877 17.0471 28.875 17.4857C29.1624 17.9243 29.3 18.4186 29.2732 18.9163C29.2465 19.414 29.0564 19.8964 28.7232 20.3125C29.1331 20.6277 29.4598 21.0086 29.6832 21.4317C29.9066 21.8549 30.0218 22.3112 30.0218 22.7725V28.9012C30.1036 28.8972 30.1862 28.8952 30.2694 28.8952C31.0946 28.8945 31.9007 29.0993 32.5815 29.4826H36.2024C36.597 29.4823 36.9869 29.4125 37.3459 29.278C37.7049 29.1435 38.0247 28.9474 38.2838 28.7028L42.8109 29.9017L45.8153 34.2991C45.5074 34.6455 45.3504 35.067 45.3698 35.4956C45.3891 35.9242 45.5835 36.335 45.9217 36.6617C46.2599 36.9883 46.7222 37.2119 47.2339 37.2962C47.7457 37.3805 48.2771 37.3207 48.7424 37.1265C49.2077 36.9322 49.5798 36.6148 49.7987 36.2254C50.0177 35.8361 50.0706 35.3975 49.949 34.9803C49.8274 34.5632 49.5384 34.1919 49.1286 33.9263C48.7187 33.6607 48.212 33.5163 47.6901 33.5164C47.6249 33.5164 47.5603 33.5188 47.497 33.5231L44.3076 28.8577C44.1889 28.6831 43.9939 28.5521 43.7622 28.4912L38.9696 27.2215V27.2078V25.611H45.0588L47.4937 27.5713C47.3132 27.9808 47.3086 28.4289 47.4809 28.8408C47.6531 29.2528 47.9918 29.6039 48.4405 29.8358C48.8892 30.0677 49.421 30.1664 49.9474 30.1155C50.4739 30.0646 50.9633 29.8672 51.3342 29.556C51.7052 29.2449 51.9354 28.8388 51.9866 28.4052C52.0378 27.9716 51.9069 27.5367 51.6156 27.1727C51.3244 26.8088 50.8903 26.5377 50.3856 26.4046C49.8808 26.2715 49.3359 26.2843 48.8413 26.441L46.1738 24.2937C46.0833 24.2089 45.9718 24.1409 45.8467 24.0944C45.7216 24.0478 45.5859 24.0238 45.4486 24.0239H38.9692V21.1239H47.5653C47.7857 21.5201 48.1644 21.8425 48.6385 22.0374C49.1126 22.2323 49.6536 22.288 50.1716 22.1953C50.6896 22.1026 51.1534 21.8671 51.486 21.5279C51.8186 21.1886 52 20.7661 52 20.3304C52 19.8947 51.8186 19.4722 51.486 19.1329C51.1534 18.7937 50.6896 18.5582 50.1716 18.4655C49.6536 18.3728 49.1126 18.4285 48.6385 18.6234C48.1644 18.8183 47.7857 19.1407 47.5653 19.5369H38.9692V16.6371H45.4494C45.5867 16.6372 45.7225 16.6132 45.8475 16.5667C45.9726 16.5202 46.0842 16.4522 46.1747 16.3674L48.8421 14.2201C49.3365 14.3767 49.8813 14.3895 50.3858 14.2565C50.8903 14.1234 51.3242 13.8525 51.6154 13.4887C51.9066 13.1249 52.0376 12.6902 51.9865 12.2568C51.9354 11.8234 51.7054 11.4174 51.3346 11.1063C50.9639 10.7952 50.4747 10.5978 49.9485 10.5468C49.4223 10.4958 48.8907 10.5943 48.4421 10.826C47.9934 11.0576 47.6548 11.4085 47.4824 11.8203C47.31 12.232 47.3143 12.6798 47.4945 13.0893L45.0588 15.05H38.9692V13.6288L43.7992 12.1603C44.0155 12.0954 44.1962 11.9689 44.3084 11.8037L47.497 7.13722C47.5608 7.14159 47.6251 7.1438 47.6901 7.14387C48.212 7.14387 48.7187 6.99938 49.1285 6.73371C49.5383 6.46804 49.8273 6.09668 49.9487 5.67952C50.0702 5.26237 50.0172 4.82374 49.7982 4.4344C49.5792 4.04505 49.207 3.72767 48.7416 3.53347C48.2762 3.33926 47.7448 3.27955 47.233 3.36395C46.7213 3.44836 46.2591 3.67197 45.9209 3.99871C45.5827 4.32545 45.3884 4.73627 45.3691 5.16492C45.3499 5.59356 45.5069 6.01504 45.8149 6.36136L42.8002 10.7739L38.4264 12.1037C38.1696 11.8171 37.8345 11.5841 37.4482 11.4234C37.0619 11.2626 36.635 11.1786 36.2019 11.178H34.8282V7.3239C34.8282 5.38148 33.8892 3.51862 32.2179 2.14512C30.5465 0.771623 28.2797 0 25.9161 0C23.5525 0 21.2857 0.771623 19.6143 2.14512C17.943 3.51862 17.0041 5.38148 17.0041 7.3239V11.178H15.6304C15.2077 11.1785 14.7907 11.2585 14.4115 11.4121C14.0323 11.5656 13.7009 11.7885 13.4428 12.0636L9.20088 10.7741L6.18618 6.36136C6.49413 6.01504 6.65116 5.59357 6.63193 5.16493C6.6127 4.73629 6.41833 4.32547 6.08018 3.99873C5.74203 3.67199 5.27982 3.44838 4.76808 3.36396C4.25635 3.27955 3.72493 3.33925 3.25954 3.53345C2.79415 3.72764 2.42193 4.045 2.2029 4.43434C1.98388 4.82368 1.93083 5.2623 2.0523 5.67945C2.17378 6.0966 2.46269 6.46797 2.87246 6.73365C3.28222 6.99934 3.78894 7.14384 4.31088 7.14387C4.37606 7.14387 4.44043 7.14165 4.504 7.13722L7.69262 11.8037C7.80479 11.9689 7.98548 12.0955 8.20173 12.1603L12.863 13.5775V15.0505H6.94212L4.5069 13.0897C4.68715 12.6802 4.69144 12.2324 4.51906 11.8206C4.34669 11.4088 4.00802 11.0579 3.55936 10.8262C3.1107 10.5945 2.57906 10.496 2.05282 10.547C1.52657 10.598 1.03741 10.7954 0.666642 11.1066C0.295874 11.4177 0.0658283 11.8237 0.0147415 12.2571C-0.0363452 12.6906 0.0946043 13.1253 0.385824 13.4891C0.677044 13.8529 1.11099 14.1239 1.61555 14.2569C2.1201 14.39 2.66486 14.3771 3.15929 14.2205L5.82674 16.3678C5.91725 16.4526 6.02879 16.5206 6.15388 16.5671C6.27897 16.6136 6.41472 16.6376 6.55202 16.6374H12.8635V19.5373H4.43569C4.21528 19.1411 3.83658 18.8188 3.36248 18.6239C2.88838 18.429 2.34742 18.3733 1.82946 18.466C1.3115 18.5587 0.847713 18.7942 0.515134 19.1334C0.182555 19.4726 0.00120351 19.8952 0.00120351 20.3308C0.00120351 20.7664 0.182555 21.1889 0.515134 21.5282C0.847713 21.8674 1.3115 22.1029 1.82946 22.1956C2.34742 22.2883 2.88838 22.2326 3.36248 22.0377C3.83658 21.8428 4.21528 21.5205 4.43569 21.1243H12.863V24.0239H6.55154C6.41423 24.0238 6.27848 24.0478 6.15339 24.0944C6.0283 24.1409 5.91676 24.2089 5.82626 24.2937L3.15881 26.441C2.69616 26.2943 2.18853 26.2732 1.7102 26.3806C1.23186 26.4881 0.807937 26.7185 0.50045 27.0383C0.192962 27.358 0.0180555 27.7502 0.00132322 28.1575C-0.0154091 28.5647 0.126911 28.9657 0.407459 29.3018C0.688007 29.6378 1.09205 29.8912 1.56048 30.025C2.0289 30.1587 2.53712 30.1657 3.01075 30.045C3.48438 29.9243 3.89858 29.6822 4.19272 29.3541C4.48686 29.026 4.64551 28.6292 4.64546 28.2217ZM39.251 45.9708H23.2365C22.4175 42.6149 19.4882 40.5766 16.0597 34.2769C14.7155 31.8071 17.8098 30.3647 19.8335 32.4863L23.7321 36.5752V22.7727C23.7278 22.5353 23.7809 22.2996 23.8885 22.0793C23.996 21.859 24.1558 21.6584 24.3586 21.4893C24.5613 21.3202 24.8029 21.1859 25.0694 21.0943C25.3358 21.0026 25.6218 20.9554 25.9107 20.9554C26.1995 20.9554 26.4855 21.0026 26.752 21.0943C27.0184 21.1859 27.2601 21.3202 27.4628 21.4893C27.6655 21.6584 27.8253 21.859 27.9329 22.0793C28.0404 22.2996 28.0936 22.5353 28.0893 22.7727V32.273C28.0978 31.8028 28.3311 31.3542 28.7387 31.0241C29.1464 30.6941 29.6957 30.5091 30.2679 30.5091C30.8402 30.5091 31.3894 30.6941 31.7971 31.0241C32.2047 31.3542 32.438 31.8028 32.4465 32.273V33.9156C32.4422 33.6782 32.4954 33.4425 32.603 33.2222C32.7105 33.0019 32.8703 32.8013 33.073 32.6322C33.2758 32.4631 33.5174 32.3289 33.7838 32.2372C34.0503 32.1455 34.3363 32.0983 34.6251 32.0983C34.914 32.0983 35.2 32.1455 35.4664 32.2372C35.7329 32.3289 35.9745 32.4631 36.1772 32.6322C36.38 32.8013 36.5398 33.0019 36.6473 33.2222C36.7549 33.4425 36.8081 33.6782 36.8038 33.9156V35.5078C36.7995 35.2704 36.8526 35.0347 36.9602 34.8144C37.0677 34.5941 37.2275 34.3935 37.4303 34.2244C37.633 34.0553 37.8746 33.9211 38.1411 33.8294C38.4075 33.7377 38.6935 33.6905 38.9824 33.6905C39.2712 33.6905 39.5572 33.7377 39.8237 33.8294C40.0901 33.9211 40.3317 34.0553 40.5345 34.2244C40.7372 34.3935 40.897 34.5941 41.0046 34.8144C41.1121 35.0347 41.1653 35.2704 41.161 35.5078V37.9387C41.161 39.842 40.8939 43.4206 39.2492 45.9708H39.251ZM23.3869 47.5579V49H38.6634V47.5579H23.3869ZM21.24 11.178V7.3239C21.2463 6.30809 21.7417 5.33564 22.618 4.61917C23.4942 3.9027 24.6801 3.5005 25.9162 3.5005C27.1523 3.5005 28.3381 3.9027 29.2144 4.61917C30.0906 5.33564 30.5861 6.30809 30.5923 7.3239V11.178H21.24Z" fill="#084493"/>
</svg>
