<svg width="52" height="49" viewBox="0 0 52 49" fill="none" xmlns="http://www.w3.org/2000/svg">
<path d="M17.0925 28.6692H13.6286C11.7546 28.6692 10.2214 30.1406 10.2214 31.9391V45.6726C10.2214 47.4893 11.7546 48.9425 13.6286 48.9425H17.0925V28.6692Z" fill="#084493"/>
<path d="M42.5891 34.6277L39.4469 45.491C38.8601 47.5256 36.9484 48.9425 34.7337 48.9425H19.9316V28.6692L26.178 20.1856C26.8405 19.2955 27.9195 18.7505 29.0741 18.7505C31.0805 18.7505 32.6137 20.3309 32.6137 22.1475C32.6137 22.4564 32.5759 22.7652 32.4812 23.074L30.8345 28.6692H37.8759C41.1126 28.6692 43.4598 31.6302 42.5891 34.6277Z" fill="#084493"/>
<path d="M7.72646 7.7582L9.14799 10.5213C9.28238 10.781 9.53981 10.9627 9.84077 11.0045L13.0189 11.4477C13.7722 11.5531 14.0732 12.4414 13.528 12.9519L11.2282 15.1028C11.0124 15.3062 10.9121 15.5969 10.9632 15.8839L11.5065 18.9213C11.6352 19.6425 10.8478 20.1911 10.172 19.8514L7.32896 18.4181C7.06207 18.2836 6.74218 18.2836 6.47339 18.4181L3.63033 19.8514C2.95648 20.1911 2.16716 19.6425 2.29587 18.9213L2.83912 15.8839C2.89023 15.5969 2.7918 15.3062 2.57412 15.1028L0.278092 12.9519C-0.267049 12.4414 0.0339143 11.5531 0.787269 11.4477L3.96536 11.0045C4.26443 10.9627 4.52376 10.781 4.65815 10.5213L6.07968 7.7582C6.41661 7.10241 7.38953 7.10241 7.72646 7.7582Z" fill="#084493"/>
<path d="M27.3231 0.491847L28.7447 3.25491C28.8791 3.51469 29.1365 3.69635 29.4375 3.73813L32.6155 4.18138C33.3689 4.28674 33.6699 5.17507 33.1247 5.68553L30.8249 7.8364C30.6091 8.03986 30.5088 8.33051 30.5599 8.61754L31.1032 11.6549C31.2319 12.3761 30.4444 12.9247 29.7687 12.585L26.9256 11.1517C26.6587 11.0173 26.3389 11.0173 26.0701 11.1517L23.227 12.585C22.5532 12.9247 21.7638 12.3761 21.8926 11.6549L22.4358 8.61754C22.4869 8.33051 22.3885 8.03986 22.1708 7.8364L19.8748 5.68553C19.3296 5.17507 19.6306 4.28674 20.3839 4.18138L23.562 3.73813C23.8611 3.69635 24.1204 3.5165 24.2548 3.25491L25.6764 0.491847C26.0133 -0.163949 26.9862 -0.163949 27.3231 0.491847Z" fill="#084493"/>
<path d="M46.9199 7.7582L48.3415 10.5213C48.4759 10.781 48.7333 10.9627 49.0343 11.0045L52.2124 11.4477C52.9657 11.5531 53.2667 12.4414 52.7215 12.9519L50.4217 15.1028C50.2059 15.3062 50.1056 15.5969 50.1567 15.8839L50.7 18.9213C50.8287 19.6425 50.0413 20.1911 49.3655 19.8514L46.5224 18.4181C46.2555 18.2836 45.9357 18.2836 45.6669 18.4181L42.8238 19.8514C42.15 20.1911 41.3606 19.6425 41.4894 18.9213L42.0326 15.8839C42.0837 15.5969 41.9853 15.3062 41.7676 15.1028L39.4678 12.9519C38.9226 12.4414 39.2236 11.5531 39.977 11.4477L43.1551 11.0045C43.4541 10.9627 43.7135 10.7829 43.8478 10.5213L45.2694 7.7582C45.6101 7.10241 46.583 7.10241 46.9199 7.7582Z" fill="#084493"/>
</svg>
