<svg width="43" height="52" viewBox="0 0 43 52" fill="none" xmlns="http://www.w3.org/2000/svg">
<path d="M32.8245 10.5149C32.8245 4.77228 28.1432 0 22.3905 0C20.1487 0 18.0541 0.95755 16.4281 2.6809C14.8021 0.95755 12.7074 0 10.4658 0C4.71306 0 0.0317383 4.77228 0.0317383 10.5149C0.0317383 16.2909 4.27781 19.2726 9.19504 22.7266C11.2227 24.1505 13.3204 25.624 15.4514 27.4695L16.4266 28.3151L17.4034 27.4709C19.8124 25.39 22.1037 23.7612 24.1241 22.324C28.9845 18.8702 32.8245 16.1413 32.8245 10.5149ZM20.8999 14.9788H17.9187V17.9547H14.9376V14.9788H11.9564V12.0029H14.9376V9.02694H17.9187V12.0029H20.8999V14.9788Z" fill="#084493"/>
<path d="M40.237 13.8208C37.1961 13.8208 36.4112 27.9266 36.3514 28.2243C36.0486 30.2912 34.5901 33.3508 32.1268 35.1931L25.6705 39.8725L23.883 37.4895L30.3393 32.8115C32.8969 30.8974 34.0625 27.629 30.8661 27.629C28.0034 27.629 22.6523 30.9376 21.0659 32.25C19.1716 33.8174 18.0769 36.1461 18.0769 38.6022V51H27.0204C27.0204 49.5714 27.7955 48.014 28.9879 46.5261C30.24 44.8893 32.0287 43.2228 33.877 41.5266C37.3947 38.2233 41.0417 34.8308 41.5188 31.3788C41.802 29.06 42.0372 25.0829 42.0255 21.5384C42.0126 17.5691 41.6757 13.9491 40.237 13.8208Z" fill="#084493"/>
<path d="M20.5987 32.1532C16.3951 29.2664 13.2055 27.8082 11.1485 27.8082C7.9521 27.8082 9.11773 31.0766 11.6753 32.9907L18.1316 37.6687L16.3441 40.0517L9.88777 35.3723C7.42433 33.53 5.96575 30.4704 5.66296 28.4035C5.60324 28.1058 4.8183 14 1.77741 14C0.107962 14.1488 -0.0709077 18.9995 0.0186266 23.642C0.0783492 27.0345 0.346555 30.3378 0.495513 31.558C0.972599 35.01 4.61955 38.4026 8.13733 41.7058C9.98565 43.402 11.7742 45.0685 13.0264 46.7053C14.2188 48.1932 14.9939 49.7506 14.9939 51.1792H23.9374V38.8408C23.9376 36.212 22.7013 33.7358 20.5987 32.1532Z" fill="#084493"/>
</svg>
