<svg width="53" height="51" viewBox="0 0 53 51" fill="none" xmlns="http://www.w3.org/2000/svg">
<path fill-rule="evenodd" clip-rule="evenodd" d="M16.3354 40.2763L14.7032 43.0418C14.2898 43.7437 13.369 43.9849 12.6533 43.5803C11.9393 43.1774 11.6914 42.2718 12.1037 41.5733L13.7353 38.8074C14.1494 38.1055 15.0695 37.8643 15.7868 38.2694C16.5024 38.675 16.75 39.5744 16.3354 40.2763ZM19.7195 40.4916C19.4841 40.3589 19.2264 40.2956 18.9716 40.2956C18.4526 40.2956 17.9469 40.5591 17.6697 41.0296L15.0235 45.5142C14.6096 46.2151 14.8577 47.1162 15.5732 47.5212C16.2894 47.9263 17.2095 47.6851 17.6231 46.9833L20.2692 42.4988C20.6827 41.7969 20.4361 40.8974 19.7195 40.4916ZM9.23752 22.1956C9.29812 22.1455 9.28982 22.0596 9.22009 22.0223L6.41483 20.4951C6.21184 20.3856 5.99236 20.4028 5.80995 20.5424C1.66144 23.7445 -0.653398 29.4019 0.305492 33.9933C0.343613 34.1792 0.448838 34.3048 0.627258 34.3786L2.82826 35.2932C2.90198 35.3234 2.9777 35.2761 2.9777 35.1972C3.03178 30.0206 5.19614 25.5254 9.23752 22.1956ZM24.3503 43.6072C24.2459 43.226 23.9983 42.9095 23.6532 42.7135C23.4179 42.5812 23.1592 42.5179 22.9053 42.5179C22.3863 42.5179 21.8807 42.7814 21.6023 43.2519L19.3967 46.9913C19.0147 47.6871 19.2651 48.562 19.9691 48.9592C20.3142 49.1542 20.7182 49.2056 21.1072 49.1033C21.4963 49.0011 21.8197 48.7589 22.02 48.4212L24.203 44.721C24.4023 44.3828 24.4548 43.988 24.3503 43.6072ZM40.3616 37.5929L33.3231 33.6152C31.9487 32.8373 30.6663 32.1067 29.0246 32.1067C27.5574 32.115 26.23 32.7499 24.9456 33.3646C22.9196 34.3331 20.6233 35.4308 18.1446 33.4227C17.4407 32.851 17.0383 31.9967 17.0929 31.1896C17.1438 30.4493 17.5626 29.8024 18.2734 29.3687L24.0581 25.8404C22.3696 25.0188 20.8153 25.1502 19.0606 25.2998C16.7436 25.4953 14.1169 25.7195 10.7244 23.852L10.0627 23.4873C6.51596 26.4789 4.65321 30.3124 4.52415 34.8886L10.1206 37.7128C10.2001 37.7523 10.2711 37.8052 10.3316 37.8689L11.676 39.2841L12.4026 38.0536C13.2407 36.6332 15.1033 36.1446 16.5563 36.9648C17.3376 37.4062 17.8426 38.1381 18.0122 38.9415C18.8078 38.6837 19.7078 38.7458 20.489 39.1871C21.2708 39.6284 21.7763 40.3604 21.946 41.1637C22.7418 40.906 23.642 40.9682 24.4229 41.4095C25.1247 41.8058 25.6261 42.4479 25.8371 43.2167C25.8527 43.2732 25.8663 43.3298 25.8784 43.3865C26.6742 43.1284 27.5749 43.1905 28.3566 43.6317C28.9346 43.9586 29.3777 44.4528 29.6336 45.0478L33.0262 46.9636C33.6852 47.3374 34.5409 47.1134 34.9213 46.4677C35.2939 45.8343 35.082 45.0127 34.4445 44.6312L30.2909 42.2836C29.923 42.0756 29.7964 41.6154 30.0083 41.2549C30.2219 40.8939 30.6927 40.7714 31.0611 40.9789C32.6666 41.8861 34.2723 42.7934 35.878 43.7007C36.6069 44.1131 37.543 43.8676 37.9639 43.1539C38.3791 42.4508 38.1344 41.5365 37.4215 41.1218L33.3442 38.8188C32.9769 38.6103 32.8501 38.1496 33.0627 37.7891C33.2757 37.4285 33.7465 37.3055 34.1139 37.5136C35.6994 38.4094 37.2849 39.3051 38.8704 40.2007C39.5963 40.6106 40.5368 40.3645 40.9558 39.654C41.421 38.8666 41.0586 38.0908 40.3616 37.5929ZM46.5933 20.5424C46.4893 20.464 46.3754 20.423 46.2578 20.423C46.1671 20.423 46.076 20.4479 45.988 20.4951L43.1817 22.0223C43.143 22.0436 43.1308 22.0613 43.1265 22.1054C43.1223 22.1484 43.1307 22.1675 43.1653 22.1956C47.2067 25.5253 49.371 30.0208 49.4251 35.1974C49.4251 35.2763 49.5008 35.3236 49.5746 35.2934L51.7749 34.3788C51.953 34.3052 52.0579 34.1786 52.0972 33.9935C53.0562 29.4021 50.7413 23.7446 46.5933 20.5424ZM42.3229 23.4734L40.9457 24.2234C38.6737 25.4601 36.141 25.6836 33.6215 24.8712C31.3909 24.1523 29.0521 24.5688 26.4674 26.1452L19.088 30.6475C18.7965 30.826 18.647 31.0355 18.6295 31.2907C18.6062 31.618 18.8023 31.9988 19.1261 32.2617C20.761 33.5866 22.0793 33.058 24.2691 32.0107C25.6415 31.354 27.1979 30.6106 29.0144 30.5997C30.9986 30.5997 32.4331 31.371 34.0942 32.3111L41.1666 36.308C41.5244 36.5044 41.9962 36.9849 42.217 37.3291L47.875 34.7677C47.7166 30.2378 45.8496 26.4408 42.3229 23.4734ZM30.998 47.5582L29.799 46.8808C29.7321 47.1638 29.6221 47.4383 29.4698 47.6966L28.6551 49.0777L29.2981 49.4317C30.4245 50.0676 31.1593 49.7222 31.4736 49.1895C31.7594 48.7045 31.7284 47.993 30.998 47.5582ZM27.5869 44.9363C26.8717 44.5361 25.9531 44.7683 25.5359 45.4743L23.9038 48.2413C23.4907 48.9415 23.7383 49.8435 24.4534 50.2478C25.1707 50.6524 26.0898 50.4113 26.5038 49.7104L28.1355 46.9434C28.5499 46.2448 28.2992 45.3411 27.5869 44.9363ZM15.1859 10.9092C15.1859 4.95576 20.1178 0.129395 26.2014 0.129395C32.285 0.129395 37.2169 4.95576 37.2169 10.9092C37.2169 16.8626 32.2851 21.6889 26.2014 21.6889C20.1177 21.6889 15.1859 16.8627 15.1859 10.9092ZM19.7452 10.9595L22.3193 15.3226C22.5769 15.7593 22.988 16.028 23.4988 16.0939C24.0096 16.1596 24.4779 16.0042 24.8421 15.6477L32.418 8.23393C33.0061 7.65853 33.0061 6.71677 32.418 6.14138C31.83 5.56599 30.8677 5.56599 30.2797 6.14138L24.0127 12.2742L22.3642 9.47998C21.9489 8.77613 21.0179 8.53206 20.2987 8.9384C19.5785 9.34525 19.3293 10.2547 19.7452 10.9595ZM42.094 8.05552C42.3064 5.96246 43.9983 4.30678 46.1371 4.09898C43.9983 3.89119 42.3064 2.23551 42.094 0.142446C41.8817 2.23551 40.1898 3.89119 38.051 4.09898C40.1898 4.30678 41.8817 5.96246 42.094 8.05552ZM9.69308 17.1691C9.86677 15.4566 11.2511 14.1019 13.001 13.932C11.2511 13.762 9.86677 12.4073 9.69308 10.6948C9.51939 12.4073 8.13508 13.762 6.38511 13.932C8.13508 14.1019 9.51939 15.4566 9.69308 17.1691Z" fill="#084493"/>
</svg>
