<svg width="70" height="68" viewBox="0 0 70 68" fill="none" xmlns="http://www.w3.org/2000/svg">
<g clip-path="url(#clip0_2024_171)">
<path d="M63.7571 39.9222C55.3796 49.3708 45.6664 57.9695 37.2486 67.4381C35.3691 68.8433 34.087 67.3645 32.6907 66.0596C25.7498 59.5821 19.3526 51.492 12.4922 44.8205C10.6059 42.3379 13.5662 39.3668 15.8754 41.187L34.7985 61.0342L35.8255 61.6231L61.6627 34.5154H47.3043L38.316 44.7C36.6311 46.199 35.2818 45.7573 34.2145 43.8234L26.3942 24.4647C25.9512 24.0966 21.7692 33.5451 19.9702 34.2611C19.554 34.4284 19.0304 34.4887 18.5806 34.5288C14.6738 34.8902 6.79313 34.9303 2.92661 34.5154C1.5438 34.3682 0.570458 33.9466 0.0065918 32.5079V31.0023C0.583884 30.3131 1.0672 29.403 2.00698 29.2558L17.9429 29.1889C20.3796 25.0267 22.4538 20.4765 25.347 16.6756C26.5822 15.7388 28.1127 16.3946 28.7772 17.7597L37.1412 38.2895C37.2621 38.3899 39.1215 36.3021 39.3631 36.0277C40.8936 34.2946 42.6591 31.7919 44.25 30.2328C44.6863 29.8112 45.1562 29.4833 45.7133 29.296L64.0726 29.1956C64.6364 28.9882 65.0728 26.258 65.1332 25.5621C66.5227 9.89705 52.3723 0.388288 40.1821 9.52232C38.9402 10.4524 37.1144 12.9216 35.604 12.9083C34.3018 12.8882 30.5695 8.89331 29.0793 7.8628C20.1111 1.67307 10.4515 7.30071 6.94081 17.231C6.27625 19.1181 6.18899 22.5977 3.31595 21.788C0.288525 20.9315 2.08753 16.0667 2.9199 13.912C6.78642 3.90807 18.1779 -2.98428 27.9448 1.29165C30.7843 2.53629 33.1338 4.72444 35.604 6.61816C38.9201 4.16235 42.4174 1.96081 46.4517 1.19797C67.1134 -2.69654 77.4912 24.4245 63.7504 39.9222H63.7571Z" fill="white"/>
</g>
<defs>
<clipPath id="clip0_2024_171">
<rect width="70" height="68" fill="white"/>
</clipPath>
</defs>
</svg>
